<svg width="24" height="24" viewBox="0 0 24 24" fill="none" xmlns="http://www.w3.org/2000/svg">
<g clip-path="url(#clip0)">
<path d="M7.5 10.51H16.5" stroke="black" stroke-width="1.5" stroke-linecap="round" stroke-linejoin="round"/>
<path d="M7.5 14.26H16.5" stroke="black" stroke-width="1.5" stroke-linecap="round" stroke-linejoin="round"/>
<path d="M7.5 18.01H16.5" stroke="black" stroke-width="1.5" stroke-linecap="round" stroke-linejoin="round"/>
<path d="M15.75 4.50999H19.5C19.8978 4.50999 20.2794 4.66803 20.5607 4.94933C20.842 5.23064 21 5.61217 21 6.00999V21.76C21 22.1578 20.842 22.5393 20.5607 22.8207C20.2794 23.102 19.8978 23.26 19.5 23.26H4.5C4.10218 23.26 3.72064 23.102 3.43934 22.8207C3.15804 22.5393 3 22.1578 3 21.76V6.00999C3 5.61217 3.15804 5.23064 3.43934 4.94933C3.72064 4.66803 4.10218 4.50999 4.5 4.50999H8.25C8.25 3.51543 8.64509 2.56161 9.34835 1.85834C10.0516 1.15508 11.0054 0.759995 12 0.759995C12.9946 0.759995 13.9484 1.15508 14.6517 1.85834C15.3549 2.56161 15.75 3.51543 15.75 4.50999V4.50999Z" stroke="black" stroke-width="1.5" stroke-linecap="round" stroke-linejoin="round"/>
<path d="M12 3.75999C12.0742 3.75999 12.1467 3.78199 12.2083 3.82319C12.27 3.8644 12.3181 3.92297 12.3465 3.99149C12.3748 4.06001 12.3823 4.13541 12.3678 4.20815C12.3533 4.2809 12.3176 4.34771 12.2652 4.40016C12.2127 4.4526 12.1459 4.48832 12.0732 4.50279C12.0004 4.51726 11.925 4.50983 11.8565 4.48145C11.788 4.45307 11.7294 4.405 11.6882 4.34333C11.647 4.28167 11.625 4.20916 11.625 4.13499C11.625 4.03554 11.6645 3.94016 11.7348 3.86983C11.8052 3.7995 11.9005 3.75999 12 3.75999" stroke="black" stroke-width="1.5" stroke-linecap="round" stroke-linejoin="round"/>
</g>
<defs>
<clipPath id="clip0">
<path d="M0 0H24V24H0V0Z" fill="white"/>
</clipPath>
</defs>
</svg>
