<svg width="24" height="24" viewBox="0 0 24 24" fill="none" xmlns="http://www.w3.org/2000/svg">
<g clip-path="url(#clip0)">
<path d="M12.7293 1.19989L16.0753 7.82889L22.5153 8.46689C22.6686 8.47963 22.8151 8.53604 22.9373 8.62943C23.0596 8.72282 23.1525 8.84928 23.2051 8.99385C23.2577 9.13842 23.2678 9.29503 23.2341 9.44515C23.2005 9.59526 23.1246 9.7326 23.0153 9.84089L17.7153 15.0939L19.6803 22.2319C19.7205 22.3833 19.7161 22.5431 19.6676 22.6921C19.6192 22.841 19.5287 22.9728 19.4071 23.0716C19.2855 23.1704 19.138 23.2319 18.9823 23.2488C18.8265 23.2657 18.6692 23.2373 18.5293 23.1669L12.0003 19.9339L5.48029 23.1629C5.34034 23.2333 5.18303 23.2617 5.0273 23.2448C4.87157 23.2279 4.72403 23.1664 4.60245 23.0676C4.48086 22.9688 4.3904 22.837 4.34194 22.6881C4.29348 22.5391 4.28908 22.3793 4.32929 22.2279L6.29429 15.0899L0.990288 9.83689C0.88102 9.7286 0.805071 9.59126 0.771433 9.44115C0.737794 9.29103 0.747876 9.13442 0.800484 8.98985C0.853092 8.84528 0.946022 8.71882 1.06827 8.62543C1.19052 8.53204 1.33698 8.47564 1.49029 8.46289L7.93029 7.82489L11.2713 1.19989C11.34 1.06569 11.4444 0.953066 11.5731 0.874417C11.7017 0.795767 11.8495 0.75415 12.0003 0.75415C12.1511 0.75415 12.2989 0.795767 12.4275 0.874417C12.5562 0.953066 12.6606 1.06569 12.7293 1.19989Z" fill="#F89626"/>
</g>
<defs>
<clipPath id="clip0">
<path d="M0.000244141 0H24.0002V24H0.000244141V0Z" fill="white"/>
</clipPath>
</defs>
</svg>
